<?xml version="1.0" encoding="UTF-8" standalone="no"?>
<svg width="278px" height="278px" viewBox="0 0 278 278" version="1.1" xmlns="http://www.w3.org/2000/svg" xmlns:xlink="http://www.w3.org/1999/xlink">
    <!-- Generator: Sketch 3.7.1 (28215) - http://www.bohemiancoding.com/sketch -->
    <title>Tinkerform logo Copy 3</title>
    <desc>Created with Sketch.</desc>
    <defs></defs>
    <g id="Page-1" stroke="none" stroke-width="1" fill="none" fill-rule="evenodd">
        <g id="Tinkerform-logo-Copy-3">
            <g id="Layer_1">
                <circle id="Oval" fill="#EAEAEA" cx="138.58" cy="138.61" r="125.58"></circle>
                <circle id="Oval" fill="#000000" cx="138.58" cy="138.61" r="125.58"></circle>
                <path d="M273.82,131.32 C276.251972,135.717087 276.441414,141.010307 274.33,145.57 C272.06,150.64 268.33,154.57 264.08,158.73 C266.012044,145.654317 266.012044,132.365683 264.08,119.29 C268.11,123.18 271.52,126.82 273.82,131.32 L273.82,131.32 Z" id="Shape" fill="#4FBA6F"></path>
                <path d="M34.82,64.28 C35.17,59.7 34.96,55.01 35.82,50.54 C37.6,41.46 43.94,36.16 53.36,35.32 C57.23,34.97 61.14,35.08 65.02,34.85 C66.1543163,34.8147861 67.2615806,34.4949862 68.24,33.92 C82.060287,24.6516188 97.5620743,18.179801 113.87,14.87 C115.145673,14.5354798 116.319924,13.8934187 117.29,13 C120.29,10.4 122.93,7.38 126.09,5 C135.22,-1.74 143.95,-1.48 152.77,5.67 C155.59,7.95 158.05,10.67 160.77,13.09 C161.579847,13.8830041 162.577637,14.4575934 163.67,14.76 C180.297464,18.1240895 196.100797,24.7260837 210.18,34.19 C211.18,34.83 212.61,34.76 213.86,34.85 C218.38,35.2 223,35 227.41,35.85 C236.41,37.6 241.75,43.96 242.7,53.35 C242.96,55.93 243.09,58.53 243.3,61.35 C242.18,65.18 244.05,68.35 246.18,71.68 C254.394308,84.5482406 260.13586,98.8359903 263.11,113.81 C263.4801,115.137523 264.166344,116.355606 265.11,117.36 C267.69,120.36 270.71,123.02 273.03,126.19 C279.69,135.27 279.41,143.96 272.32,152.7 C270.03,155.52 267.32,157.97 264.9,160.7 C264.066907,161.559231 263.464875,162.615368 263.15,163.77 C259.799837,180.33116 253.221369,196.070553 243.79,210.09 C243.15,211.09 243.2,212.52 243.1,213.77 C242.75,218.36 242.96,223.04 242.05,227.51 C240.18,236.67 233.93,241.83 224.45,242.65 C220.51,242.99 216.54,242.9 212.59,243.1 C211.64249,243.12404 210.716718,243.389038 209.9,243.87 C195.985872,253.254777 180.352325,259.793678 163.9,263.11 C162.62721,263.47222 161.463026,264.141883 160.51,265.06 C157.51,267.65 154.87,270.67 151.7,273 C142.63,279.67 133.96,279.42 125.18,272.35 C122.36,270.08 119.91,267.35 117.18,264.94 C116.270102,264.068553 115.156088,263.439341 113.94,263.11 C97.5249273,259.803536 81.9172775,253.311107 68,244 C66.8050557,243.430826 65.4932341,243.149966 64.17,243.18 C59.58,242.82 54.9,243.04 50.43,242.18 C41.33,240.36 36.07,234.04 35.25,224.61 C34.91,220.67 35,216.7 34.79,212.75 C34.7550485,211.739804 34.4624539,210.755309 33.94,209.89 C24.6063987,196.00083 18.1055365,180.406237 14.81,164 C14.4554492,162.725449 13.7926173,161.557766 12.88,160.6 C10.29,157.6 7.26,154.96 4.88,151.8 C-1.86,142.67 -1.57,133.95 5.59,125.13 C7.84,122.36 10.51,119.95 12.87,117.28 C13.7498544,116.37544 14.3892876,115.265026 14.73,114.05 C18.0707536,97.5503316 24.6252355,81.8691837 34.02,67.9 C34.5664406,66.7726209 34.8404646,65.532662 34.82,64.28 L34.82,64.28 Z M36,63 L36.79,63.3 C44.3783365,53.1025349 53.4212288,44.0731193 63.63,36.5 C58.7544144,36.1593232 53.85573,36.601589 49.12,37.81 C42.87,39.56 38.91,43.65 37.62,49.95 C36.75,54.23 36.52,58.64 36,63 L36,63 Z M274.33,145.58 C276.441414,141.020307 276.251972,135.727087 273.82,131.33 C271.52,126.83 268.11,123.19 264.07,119.33 C266.002044,132.405683 266.002044,145.694317 264.07,158.77 C268.33,154.55 272.06,150.64 274.33,145.57 L274.33,145.58 Z M260.22,113.35 C260,103.72 248.99,77.35 243.11,71.07 L242.41,71.18 C242.66,77.49 242.7,83.84 243.25,90.18 C243.699755,94.4206314 245.563019,98.3866715 248.54,101.44 C252.34,105.46 256.32,109.36 260.22,113.35 L260.22,113.35 Z M242.66,206.57 C251.274691,193.896994 257.23128,179.609345 260.17,164.57 C254.17,170 247.41,174.82 244.23,182.57 C241.05,190.32 242.27,198.49 242.66,206.56 L242.66,206.57 Z M238,231.66 C240.8,226.13 240.88,220.13 240.59,214.03 C232.889551,224.008142 223.954963,232.96961 214,240.7 C217.214724,240.809941 220.433189,240.686283 223.63,240.33 C229.65,239.56 235,237.46 238,231.66 L238,231.66 Z M240.86,63.16 C240.774653,58.4993833 240.282787,53.8551025 239.39,49.28 C238.29223,43.906592 234.281357,39.5984738 229,38.12 C224.142484,36.6626909 219.047369,36.1667664 214,36.66 C223.972591,44.3761094 232.974705,53.2707758 240.81,63.15 L240.86,63.16 Z M206.87,35.42 L206.96,34.69 C194.190839,26.2860095 179.95778,20.3533068 165,17.2 L164.66,17.65 C168.05,21.11 171.36,24.65 174.85,28 C178.276567,31.5090936 182.719124,33.8528047 187.55,34.7 C189.866573,35.0730473 192.204724,35.2968417 194.55,35.37 C198.64,35.49 202.76,35.42 206.87,35.42 L206.87,35.42 Z M207.4,242.63 C201.03,242.63 195.22,242.46 189.4,242.68 C184.868813,242.859676 180.545773,244.629962 177.19,247.68 C172.85,251.55 168.79,255.68 164.6,259.77 L165,260.45 C180.129807,257.224426 194.517066,251.179131 207.41,242.63 L207.4,242.63 Z M147.13,273.63 C151.4,271.32 154.89,268.05 158.68,264.14 C145.609731,266.05444 132.330269,266.05444 119.26,264.14 C123.03,268.01 126.51,271.29 130.79,273.61 C135.842174,276.562117 142.095064,276.554469 147.14,273.59 L147.13,273.63 Z M158.3,13.49 C154,9.12 150,5.28 144.74,3.07 C140.8488,1.24510833 136.343167,1.26714076 132.47,3.13 C129.610247,4.62875417 126.889519,6.37898846 124.34,8.36 C122.537425,9.83695032 120.81812,11.4127016 119.19,13.08 C132.188159,11.4995698 145.33783,11.6374211 158.3,13.49 L158.3,13.49 Z M70.64,242.86 C78.47,249.54 107.04,261.3 113.31,260.41 C109.87,256.89 106.64,253.41 103.24,250.16 C100.26975,247.140299 96.5651348,244.9451 92.49,243.79 C85.4,241.94 78.24,242.68 70.64,242.86 L70.64,242.86 Z M111,19.44 C111.73,18.71 112.38,17.91 113.07,17.14 C98.0475099,20.0081617 83.7462655,25.8381199 71,34.29 L71.18,34.82 C76.55,34.82 81.92,35.03 87.28,34.76 C92.5915598,34.5817625 97.6625547,32.5022642 101.57,28.9 C104.81,25.87 107.89,22.62 111,19.44 L111,19.44 Z M45.77,238.31 C51.36,241.15 57.4,241.31 63.55,240.98 C53.4337306,233.228758 44.4413954,224.111904 36.83,213.89 C36.69,219.89 36.83,225.31 38.83,230.47 C40.0611183,233.87141 42.5431008,236.675263 45.77,238.31 L45.77,238.31 Z M34.77,206.07 C34.77,200.95 34.97,195.82 34.77,190.71 C34.6672998,186.800595 33.5396881,182.986715 31.5,179.65 C27.72,173.65 22.31,169.18 16.98,164.59 C19.9909964,179.673109 25.907566,194.026395 34.4,206.85 C34.5555048,206.607905 34.6766603,206.345402 34.76,206.07 L34.77,206.07 Z M32.93,94.57 C36.08,86.84 34.93,78.7 34.5,70.65 C25.8916557,83.3264395 19.9356263,97.6127464 16.99,112.65 C23,107.2 29.75,102.37 32.93,94.57 L32.93,94.57 Z M13.2,157.83 C11.491357,144.879989 11.5788497,131.756079 13.46,118.83 C9.11,123.13 5.08,127.04 3.14,132.41 C2.17336659,134.956144 1.78400085,137.68512 2,140.4 C2.81,147.94 8.09,152.86 13.2,157.83 L13.2,157.83 Z" id="Shape" fill="#353535"></path>
                <path d="M243.1,71.07 C248.98,77.38 259.99,103.72 260.21,113.35 C256.31,109.35 252.33,105.46 248.53,101.35 C245.553019,98.2966715 243.689755,94.3306314 243.24,90.09 C242.69,83.8 242.65,77.45 242.4,71.09 L243.1,71.07 Z" id="Shape" fill="#F0C419"></path>
                <path d="M260.17,164.58 C257.23128,179.619345 251.274691,193.906994 242.66,206.58 C242.27,198.51 241.08,190.38 244.24,182.64 C247.4,174.9 254.15,170 260.17,164.58 L260.17,164.58 Z" id="Shape" fill="#7F8C8D"></path>
                <path d="M240.54,214 C240.83,220.1 240.75,226.1 237.95,231.63 C235.01,237.43 229.65,239.53 223.64,240.31 C220.443189,240.666283 217.224724,240.789941 214.01,240.68 C223.94447,232.942629 232.858762,223.977935 240.54,214 L240.54,214 Z" id="Shape" fill="#E64C3C"></path>
                <path d="M239.34,49.27 C240.232787,53.8451025 240.724653,58.4893833 240.81,63.15 C232.974705,53.2707758 223.972591,44.3761094 214,36.66 C219.047369,36.1667664 224.142484,36.6626909 229,38.12 C234.259224,39.612794 238.24734,43.9133256 239.34,49.27 L239.34,49.27 Z" id="Shape" fill="#E64C3C"></path>
                <path d="M207,34.68 L206.91,35.41 C202.8,35.41 198.68,35.48 194.57,35.41 C192.224724,35.3368417 189.886573,35.1130473 187.57,34.74 C182.739124,33.8928047 178.296567,31.5490936 174.87,28.04 C171.38,24.69 168.07,21.14 164.68,17.69 L165,17.2 C179.970997,20.3454778 194.21799,26.2749405 207,34.68 L207,34.68 Z" id="Shape" fill="#7F8C8D"></path>
                <path d="M189.44,242.68 C195.23,242.46 201.03,242.63 207.44,242.63 C194.536502,251.175534 180.138845,257.214137 165,260.43 L164.6,259.75 C168.78,255.75 172.85,251.53 177.19,247.66 C180.559046,244.608542 184.897457,242.844845 189.44,242.68 L189.44,242.68 Z" id="Shape" fill="#F0C419"></path>
                <path d="M158.68,264.1 C154.9,268 151.41,271.28 147.13,273.59 C142.083963,276.544386 135.836037,276.544386 130.79,273.59 C126.52,271.27 123.03,267.99 119.26,264.12 C132.33124,266.027809 145.610703,266.021071 158.68,264.1 L158.68,264.1 Z" id="Shape" fill="#4FBA6F"></path>
                <path d="M144.73,3.08 C149.99,5.29 153.99,9.08 158.29,13.5 C145.32783,11.6474211 132.178159,11.5095698 119.18,13.09 C120.80812,11.4227016 122.527425,9.84695032 124.33,8.37 C126.879519,6.38898846 129.600247,4.63875417 132.46,3.14 C136.333167,1.27714076 140.8388,1.25510833 144.73,3.08 L144.73,3.08 Z" id="Shape" fill="#4FBA6F"></path>
                <path d="M113.31,260.4 C107.04,261.3 78.47,249.54 70.64,242.85 C78.24,242.67 85.41,241.93 92.49,243.78 C96.5651348,244.9351 100.26975,247.130299 103.24,250.15 C106.64,253.43 109.87,256.88 113.31,260.4 L113.31,260.4 Z" id="Shape" fill="#7F8C8D"></path>
                <path d="M113.11,17.14 C112.42,17.91 111.77,18.71 111.04,19.44 C107.89,22.62 104.81,25.87 101.53,28.9 C97.6225547,32.5022642 92.5515598,34.5817625 87.24,34.76 C81.88,35.03 76.5,34.82 71.14,34.82 L71,34.29 C83.7582887,25.8332354 98.0735935,20.0030887 113.11,17.14 L113.11,17.14 Z" id="Shape" fill="#F0C419"></path>
                <path d="M49.13,37.81 C53.86573,36.601589 58.7644144,36.1593232 63.64,36.5 C53.4284019,44.0693145 44.3821403,53.095361 36.79,63.29 L36,63 C36.52,58.65 36.75,54.24 37.62,50 C38.91,43.65 42.87,39.56 49.13,37.81 L49.13,37.81 Z" id="Shape" fill="#E64C3C"></path>
                <path d="M63.54,241 C57.39,241.28 51.36,241.17 45.76,238.33 C42.5444297,236.689263 40.0738606,233.886186 38.85,230.49 C36.85,225.33 36.68,219.95 36.85,213.91 C44.4521912,224.129876 53.4343347,233.246633 63.54,241 L63.54,241 Z" id="Shape" fill="#E64C3C"></path>
                <path d="M34.75,190.71 C34.97,195.82 34.75,200.95 34.75,206.07 C34.6666603,206.345402 34.5455048,206.607905 34.39,206.85 C25.9069506,194.02108 20.0005809,179.664424 17,164.58 C22.33,169.17 27.74,173.58 31.52,179.64 C33.5473201,182.983556 34.6611272,186.800845 34.75,190.71 L34.75,190.71 Z" id="Shape" fill="#F0C419"></path>
                <path d="M34.5,70.65 C34.89,78.71 36.08,86.84 32.93,94.57 C29.78,102.3 23,107.2 17,112.62 C19.9464353,97.5939505 25.8988945,83.3182527 34.5,70.65 L34.5,70.65 Z" id="Shape" fill="#7F8C8D"></path>
                <path d="M13.46,118.88 C11.5788497,131.806079 11.491357,144.929989 13.2,157.88 C8.09,152.88 2.81,147.99 1.99,140.45 C1.78463716,137.750964 2.17730342,135.039859 3.14,132.51 C5.08,127.09 9.11,123.18 13.46,118.88 L13.46,118.88 Z" id="Shape" fill="#4FBA6F"></path>
                <path d="M44.17,130 L38.71,130 C37.6054305,130 36.71,129.104569 36.71,128 C36.71,126.895431 37.6054305,126 38.71,126 L53.47,126 C54.5745695,126 55.47,126.895431 55.47,128 C55.47,129.104569 54.5745695,130 53.47,130 L48.29,130 L48.29,145.76 C48.29,146.897707 47.3677066,147.82 46.23,147.82 C45.0922934,147.82 44.17,146.897707 44.17,145.76 L44.17,130 L44.17,130 Z" id="Shape" fill="#E5E5E5"></path>
                <path d="M58.74,128 C58.74,125.44 62.86,125.35 62.86,128 L62.86,145.82 C62.86,148.41 58.74,148.47 58.74,145.82 L58.74,128 L58.74,128 Z" id="Shape" fill="#E5E5E5"></path>
                <path d="M67.5,128.28 C67.5,127.16 67.75,126.06 69.37,126.06 C70.49,126.06 70.74,126.34 71.59,127.15 L81.92,140.07 L81.92,128 C81.9362986,126.876341 82.8004499,125.947378 83.92,125.85 C85.0723984,125.942089 85.9919523,126.848988 86.1,128 L86.1,145.57 C86.1564411,146.595806 85.4554914,147.509165 84.45,147.72 C83.4835179,147.767273 82.5495093,147.364875 81.92,146.63 L71.59,133.5 L71.59,145.5 C71.6514122,146.060434 71.4659849,146.619862 71.0819859,147.032661 C70.6979869,147.44546 70.1534056,147.670792 69.59,147.65 C69.0164803,147.670297 68.4607118,147.449266 68.0577793,147.040632 C67.6548467,146.631997 67.4416469,146.073178 67.47,145.5 L67.47,128.28 L67.5,128.28 Z" id="Shape" fill="#E5E5E5"></path>
                <path d="M97.52,138.14 L94.52,141.42 L94.52,145.79 C94.52,148.38 90.4,148.41 90.4,145.79 L90.4,128 C90.4,125.35 94.52,125.25 94.52,128 L94.52,135.93 L103.52,126.63 C103.899666,126.199499 104.445999,125.952876 105.02,125.952876 C105.594001,125.952876 106.140334,126.199499 106.52,126.63 C106.935576,126.971919 107.176365,127.481844 107.176365,128.02 C107.176365,128.558156 106.935576,129.068081 106.52,129.41 C104.68,131.59 102.52,133.53 100.52,135.71 L107.82,144.54 C109.69,147.13 105.7,149 104.45,147 L97.52,138.14 Z" id="Shape" fill="#E5E5E5"></path>
                <path d="M113.27,147.69 C112.755666,147.698187 112.259992,147.497479 111.896256,147.133744 C111.532521,146.770008 111.331813,146.274334 111.34,145.76 L111.34,128 C111.328977,127.484832 111.528773,126.987498 111.893136,126.623136 C112.257498,126.258773 112.754832,126.058977 113.27,126.07 L124.47,126.07 C125.591138,126.07 126.5,126.978862 126.5,128.1 C126.5,129.221138 125.591138,130.13 124.47,130.13 L115.47,130.13 L115.47,134.81 L123.33,134.81 C124.459422,134.81 125.375,135.725578 125.375,136.855 C125.375,137.984422 124.459422,138.9 123.33,138.9 L115.47,138.9 L115.47,143.58 L125,143.58 C125.764742,143.52649 126.495436,143.904141 126.894096,144.558941 C127.292756,145.213741 127.292756,146.036259 126.894096,146.691059 C126.495436,147.345859 125.764742,147.72351 125,147.67 L113.27,147.67 L113.27,147.69 Z" id="Shape" fill="#E5E5E5"></path>
                <path d="M134.71,145.66 C134.71,148.37 130.56,148.47 130.56,145.72 L130.56,128 C130.549195,127.498064 130.741758,127.013077 131.093927,126.655259 C131.446095,126.297441 131.927956,126.097185 132.43,126.1 L140.73,126.1 C148.66,126.1 150.28,136.71 143.66,139.36 L147.81,144.42 C149.43,146.82 146.19,149.13 144.31,146.76 L139.61,140 L134.71,140 L134.71,145.65 L134.71,145.66 Z M134.71,136.42 L140.71,136.42 C144.77,136.42 145.02,129.87 140.71,129.87 L134.71,129.87 L134.71,136.42 L134.71,136.42 Z" id="Shape" fill="#E5E5E5"></path>
                <path d="M155.71,130.16 L155.71,135.16 L163.71,135.16 C164.90831,135.236168 165.867755,136.18282 165.96,137.38 C165.806114,138.491216 164.830616,139.301962 163.71,139.25 L155.71,139.25 L155.71,145.8 C155.732017,146.307851 155.544096,146.802387 155.190373,147.16746 C154.83665,147.532532 154.348293,147.735972 153.84,147.73 C153.286215,147.788714 152.733027,147.613877 152.313573,147.247567 C151.894119,146.881256 151.646387,146.356647 151.63,145.8 L151.63,128 C151.646387,127.443353 151.894119,126.918744 152.313573,126.552433 C152.733027,126.186123 153.286215,126.011286 153.84,126.07 L164.84,126.07 C165.3897,126.007258 165.940036,126.182204 166.352605,126.550842 C166.765173,126.919479 167.000717,127.446731 167,128 C166.978102,129.18511 166.00526,130.131177 164.82,130.12 L155.74,130.12 L155.71,130.16 Z" id="Shape" fill="#E5E5E5"></path>
                <path d="M181.42,148 C175.65,148.25 169.66,144.41 169.66,136.77 C169.66,129.13 175.66,125.32 181.42,125.32 C186.88,125.6 192.59,129.38 192.59,136.77 C192.687561,139.766736 191.544111,142.670901 189.429662,144.796708 C187.315214,146.922514 184.417216,148.081506 181.42,148 L181.42,148 Z M181.08,129.37 C176.997039,129.386553 173.699003,132.706939 173.710027,136.789919 C173.721051,140.872899 177.036969,144.175428 181.119959,144.169932 C185.20295,144.164437 188.509966,140.852995 188.51,136.77 C188.581529,134.780202 187.818948,132.850917 186.406301,131.447764 C184.993653,130.04461 183.059271,129.295056 181.07,129.38 L181.08,129.37 Z" id="Shape" fill="#E5E5E5"></path>
                <path d="M200.54,145.66 C200.54,148.37 196.39,148.47 196.39,145.72 L196.39,128 C196.379195,127.498064 196.571758,127.013077 196.923927,126.655259 C197.276095,126.297441 197.757956,126.097185 198.26,126.1 L206.56,126.1 C214.49,126.1 216.11,136.71 209.49,139.36 L213.64,144.42 C215.26,146.82 212.02,149.13 210.14,146.76 L205.44,140 L200.54,140 L200.54,145.65 L200.54,145.66 Z M200.54,136.42 L206.54,136.42 C210.6,136.42 210.85,129.87 206.54,129.87 L200.54,129.87 L200.54,136.42 L200.54,136.42 Z" id="Shape" fill="#E5E5E5"></path>
                <path d="M221.63,134 L221.63,145.55 C221.627792,146.13707 221.386717,146.697952 220.962268,147.103536 C220.537819,147.509121 219.966564,147.724466 219.38,147.7 C218.839201,147.683684 218.329785,147.442272 217.974716,147.034038 C217.619647,146.625803 217.451187,146.087839 217.51,145.55 L217.51,128 C217.467484,126.901862 218.286571,125.96013 219.38,125.85 C220.18546,125.888885 220.925967,126.303569 221.38,126.97 L228.25,136.24 L235.36,126.63 C235.904028,125.94766 236.827663,125.696831 237.642107,126.010255 C238.456551,126.323679 238.973752,127.128986 238.92,128 L238.92,145.57 C238.978813,146.107839 238.810353,146.645803 238.455284,147.054038 C238.100215,147.462272 237.590799,147.703684 237.05,147.72 C236.492525,147.72157 235.959693,147.490393 235.579993,147.082216 C235.200293,146.674038 235.008187,146.125907 235.05,145.57 L235.05,134 L229.87,140.55 C228.75,141.92 227.34,141.92 226.31,140.55 L221.63,134 Z" id="Shape" fill="#E5E5E5"></path>
            </g>
        </g>
    </g>
</svg>